HIERARCHY
ROOT Hips
{
  OFFSET 5.80788e-005 67.184 3.4734
  CHANNELS 6 Xposition Yposition Zposition Zrotation Xrotation Yrotation
  JOINT Chest
  {
    OFFSET 0 8.7983 -4.7612
    CHANNELS 6 Xposition Yposition Zposition Zrotation Xrotation Yrotation
    JOINT Chest2
    {
      OFFSET 0 8.0291 0.4195
      CHANNELS 6 Xposition Yposition Zposition Zrotation Xrotation Yrotation
      JOINT Chest3
      {
        OFFSET 0 9.9351 -2.2114
        CHANNELS 6 Xposition Yposition Zposition Zrotation Xrotation Yrotation
        JOINT Neck
        {
          OFFSET 0 22.3885 -0.4656
          CHANNELS 6 Xposition Yposition Zposition Zrotation Xrotation Yrotation
          JOINT Head
          {
            OFFSET -0.0001 12.643 3.4389
            CHANNELS 6 Xposition Yposition Zposition Zrotation Xrotation Yrotation
            End Site
            {
              OFFSET 0.0001 17.6655 0.5274
            }
          }
        }
        JOINT LeftCollar
        {
          OFFSET 2.2603 21.606 7.4023
          CHANNELS 6 Xposition Yposition Zposition Zrotation Xrotation Yrotation
          JOINT LeftShoulder
          {
            OFFSET 13.5163 -1.1332 -5.0146
            CHANNELS 6 Xposition Yposition Zposition Zrotation Xrotation Yrotation
            JOINT LeftElbow
            {
              OFFSET -0.0995 -28.05 -0.2431
              CHANNELS 6 Xposition Yposition Zposition Zrotation Xrotation Yrotation
              JOINT LeftWrist
              {
                OFFSET 0.0679 -23.3996 -0.1402
                CHANNELS 6 Xposition Yposition Zposition Zrotation Xrotation Yrotation
                JOINT LeftFinger1
                {
                  OFFSET 0.7932 -9.069 2.5189
                  CHANNELS 6 Xposition Yposition Zposition Zrotation Xrotation Yrotation
                  JOINT LeftFinger11
                  {
                    OFFSET -0.8272 -3.3923 0.5977
                    CHANNELS 6 Xposition Yposition Zposition Zrotation Xrotation Yrotation
                    JOINT LeftFinger12
                    {
                      OFFSET -0.5649 -2.3158 0.4082
                      CHANNELS 6 Xposition Yposition Zposition Zrotation Xrotation Yrotation
                      End Site
                      {
                        OFFSET -0.4919 -1.6479 0.2673
                      }
                    }
                  }
                }
                JOINT LeftFinger2
                {
                  OFFSET 0.9159 -9.2044 0.2193
                  CHANNELS 6 Xposition Yposition Zposition Zrotation Xrotation Yrotation
                  JOINT LeftFinger21
                  {
                    OFFSET 0.0117 -4.1944 -0.0248
                    CHANNELS 6 Xposition Yposition Zposition Zrotation Xrotation Yrotation
                    JOINT LeftFinger22
                    {
                      OFFSET 0.0071 -2.3249 -0.0142
                      CHANNELS 6 Xposition Yposition Zposition Zrotation Xrotation Yrotation
                      End Site
                      {
                        OFFSET -0.1475 -2.0882 0.0028
                      }
                    }
                  }
                }
                JOINT LeftFinger3
                {
                  OFFSET 0.6113 -8.7231 -2.0637
                  CHANNELS 6 Xposition Yposition Zposition Zrotation Xrotation Yrotation
                  JOINT LeftFinger31
                  {
                    OFFSET -0.1927 -3.8059 -0.2383
                    CHANNELS 6 Xposition Yposition Zposition Zrotation Xrotation Yrotation
                    JOINT LeftFinger32
                    {
                      OFFSET -0.1091 -2.1688 -0.1362
                      CHANNELS 6 Xposition Yposition Zposition Zrotation Xrotation Yrotation
                      End Site
                      {
                        OFFSET -0.2358 -1.9176 -0.0906
                      }
                    }
                  }
                }
                JOINT LeftFinger4
                {
                  OFFSET -0.6151 -8.0947 -3.5641
                  CHANNELS 6 Xposition Yposition Zposition Zrotation Xrotation Yrotation
                  JOINT LeftFinger41
                  {
                    OFFSET -0.4882 -2.341 -0.6462
                    CHANNELS 6 Xposition Yposition Zposition Zrotation Xrotation Yrotation
                    JOINT LeftFinger42
                    {
                      OFFSET -0.3575 -1.7167 -0.4742
                      CHANNELS 6 Xposition Yposition Zposition Zrotation Xrotation Yrotation
                      End Site
                      {
                        OFFSET -0.4187 -1.5237 -0.3496
                      }
                    }
                  }
                }
                JOINT LeftFinger0
                {
                  OFFSET -1.42 -1.8761 1.4223
                  CHANNELS 6 Xposition Yposition Zposition Zrotation Xrotation Yrotation
                  JOINT LeftFinger01
                  {
                    OFFSET -1.1471 -3.4929 2.6334
                    CHANNELS 6 Xposition Yposition Zposition Zrotation Xrotation Yrotation
                    JOINT LeftFinger02
                    {
                      OFFSET -0.823 -2.3 1.6571
                      CHANNELS 6 Xposition Yposition Zposition Zrotation Xrotation Yrotation
                      End Site
                      {
                        OFFSET -0.5822 -1.6914 1.1582
                      }
                    }
                  }
                }
              }
            }
          }
        }
        JOINT RightCollar
        {
          OFFSET -2.2603 21.606 7.4023
          CHANNELS 6 Xposition Yposition Zposition Zrotation Xrotation Yrotation
          JOINT RightShoulder
          {
            OFFSET -13.5187 -1.1334 -5.0155
            CHANNELS 6 Xposition Yposition Zposition Zrotation Xrotation Yrotation
            JOINT RightElbow
            {
              OFFSET 0.0994 -28.0499 -0.2431
              CHANNELS 6 Xposition Yposition Zposition Zrotation Xrotation Yrotation
              JOINT RightWrist
              {
                OFFSET -0.0679 -23.3996 -0.1402
                CHANNELS 6 Xposition Yposition Zposition Zrotation Xrotation Yrotation
                JOINT RightFinger1
                {
                  OFFSET -0.7932 -9.0691 2.5189
                  CHANNELS 6 Xposition Yposition Zposition Zrotation Xrotation Yrotation
                  JOINT RightFinger11
                  {
                    OFFSET 0.8272 -3.3923 0.5977
                    CHANNELS 6 Xposition Yposition Zposition Zrotation Xrotation Yrotation
                    JOINT RightFinger12
                    {
                      OFFSET 0.565 -2.3158 0.4082
                      CHANNELS 6 Xposition Yposition Zposition Zrotation Xrotation Yrotation
                      End Site
                      {
                        OFFSET 0.4919 -1.6479 0.2673
                      }
                    }
                  }
                }
                JOINT RightFinger2
                {
                  OFFSET -0.916 -9.2044 0.2193
                  CHANNELS 6 Xposition Yposition Zposition Zrotation Xrotation Yrotation
                  JOINT RightFinger21
                  {
                    OFFSET -0.0117 -4.1944 -0.0248
                    CHANNELS 6 Xposition Yposition Zposition Zrotation Xrotation Yrotation
                    JOINT RightFinger22
                    {
                      OFFSET -0.0071 -2.3249 -0.0142
                      CHANNELS 6 Xposition Yposition Zposition Zrotation Xrotation Yrotation
                      End Site
                      {
                        OFFSET 0.1475 -2.0882 0.0028
                      }
                    }
                  }
                }
                JOINT RightFinger3
                {
                  OFFSET -0.6113 -8.7231 -2.0637
                  CHANNELS 6 Xposition Yposition Zposition Zrotation Xrotation Yrotation
                  JOINT RightFinger31
                  {
                    OFFSET 0.1927 -3.8059 -0.2383
                    CHANNELS 6 Xposition Yposition Zposition Zrotation Xrotation Yrotation
                    JOINT RightFinger32
                    {
                      OFFSET 0.1091 -2.1688 -0.1362
                      CHANNELS 6 Xposition Yposition Zposition Zrotation Xrotation Yrotation
                      End Site
                      {
                        OFFSET 0.2358 -1.9176 -0.0906
                      }
                    }
                  }
                }
                JOINT RightFinger4
                {
                  OFFSET 0.6151 -8.0947 -3.564
                  CHANNELS 6 Xposition Yposition Zposition Zrotation Xrotation Yrotation
                  JOINT RightFinger41
                  {
                    OFFSET 0.4882 -2.341 -0.6462
                    CHANNELS 6 Xposition Yposition Zposition Zrotation Xrotation Yrotation
                    JOINT RightFinger42
                    {
                      OFFSET 0.3574 -1.7166 -0.4742
                      CHANNELS 6 Xposition Yposition Zposition Zrotation Xrotation Yrotation
                      End Site
                      {
                        OFFSET 0.4187 -1.5237 -0.3496
                      }
                    }
                  }
                }
                JOINT RightFinger0
                {
                  OFFSET 1.4199 -1.8761 1.4221
                  CHANNELS 6 Xposition Yposition Zposition Zrotation Xrotation Yrotation
                  JOINT RightFinger01
                  {
                    OFFSET 1.1472 -3.4929 2.6336
                    CHANNELS 6 Xposition Yposition Zposition Zrotation Xrotation Yrotation
                    JOINT RightFinger02
                    {
                      OFFSET 0.8229 -2.3 1.6571
                      CHANNELS 6 Xposition Yposition Zposition Zrotation Xrotation Yrotation
                      End Site
                      {
                        OFFSET 0.5822 -1.6914 1.1582
                      }
                    }
                  }
                }
              }
            }
          }
        }
      }
    }
  }
  JOINT RightHip
  {
    OFFSET -9.412 3.9771 -0.7758
    CHANNELS 6 Xposition Yposition Zposition Zrotation Xrotation Yrotation
    JOINT RightKnee
    {
      OFFSET -0.7531 -40.938 0
      CHANNELS 6 Xposition Yposition Zposition Zrotation Xrotation Yrotation
      JOINT RightAnkle
      {
        OFFSET 0 -40.1986 0
        CHANNELS 6 Xposition Yposition Zposition Zrotation Xrotation Yrotation
        JOINT RightToe
        {
          OFFSET 0 -4.4182 9.239
          CHANNELS 6 Xposition Yposition Zposition Zrotation Xrotation Yrotation
          End Site
          {
            OFFSET 0 0 6.1981
          }
        }
      }
    }
  }
  JOINT LeftHip
  {
    OFFSET 9.4119 3.9773 -0.7758
    CHANNELS 6 Xposition Yposition Zposition Zrotation Xrotation Yrotation
    JOINT LeftKnee
    {
      OFFSET 0.7532 -40.9383 0
      CHANNELS 6 Xposition Yposition Zposition Zrotation Xrotation Yrotation
      JOINT LeftAnkle
      {
        OFFSET 0 -40.1986 0
        CHANNELS 6 Xposition Yposition Zposition Zrotation Xrotation Yrotation
        JOINT LeftToe
        {
          OFFSET 0 -4.4182 9.239
          CHANNELS 6 Xposition Yposition Zposition Zrotation Xrotation Yrotation
          End Site
          {
            OFFSET 0 0 6.1981
          }
        }
      }
    }
  }
}
MOTION
Frames:	4
Frame Time:	0.0333333
5.80788e-005 67.184 3.4734 0 0 -0 0 8.7983 -4.7612 0 0 -0 0 8.0291 0.4195 0 0 -0 0 9.9351 -2.2114 0 0 -0 0 22.3885 -0.4656 0 0 -0 -0.0001 12.643 3.4389 0 0 -0 2.2603 21.606 7.4023 0 0 -12.5014 13.5163 -1.1332 -5.0146 88.1196 14.2451 10.6914 -0.0995 -28.05 -0.2431 -0.00160068 -0.00239207 0.000740045 0.0679 -23.3996 -0.1402 -8.4365e-005 7.00714e-005 -9.52055e-007 0.7932 -9.069 2.5189 9.93923e-017 -1.98785e-016 -1.59028e-015 -0.8272 -3.3923 0.5977 9.93923e-017 -5.96354e-016 -1.59028e-015 -0.5649 -2.3158 0.4082 -9.93923e-017 -5.96354e-016 -1.59028e-015 0.9159 -9.2044 0.2193 9.93923e-017 -1.98785e-016 -1.59028e-015 0.0117 -4.1944 -0.0248 -0.0128176 0.00232552 8.52707e-005 0.0071 -2.3249 -0.0142 9.93923e-017 5.96354e-016 -0 0.6113 -8.7231 -2.0637 9.93923e-017 -1.98785e-016 -1.59028e-015 -0.1927 -3.8059 -0.2383 -0.0160551 0.00299681 0.000857156 -0.1091 -2.1688 -0.1362 -2.48481e-016 0 3.18055e-015 -0.6151 -8.0947 -3.5641 9.93923e-017 -1.98785e-016 -1.59028e-015 -0.4882 -2.341 -0.6462 -0.0125865 0.0031206 0.00282719 -0.3575 -1.7167 -0.4742 0 1.98785e-016 -0 -1.42 -1.8761 1.4223 9.93923e-017 -1.98785e-016 -1.59028e-015 -1.1471 -3.4929 2.6334 9.93923e-017 -5.96354e-016 -1.59028e-015 -0.823 -2.3 1.6571 -9.93923e-017 -5.96354e-016 -1.59028e-015 -2.2603 21.606 7.4023 -0.865644 0.16582 7.03859 -13.5187 -1.1334 -5.0155 -88.0329 10.2057 -10.5567 0.0994 -28.0499 -0.2431 0.0015593 -0.00248883 -0.000788628 -0.0679 -23.3996 -0.1402 7.87605e-005 4.10553e-005 1.24965e-005 -0.7932 -9.0691 2.5189 -3.97569e-016 -7.95139e-016 3.18055e-015 0.8272 -3.3923 0.5977 -1.98785e-016 -3.97569e-016 3.18055e-015 0.565 -2.3158 0.4082 -1.98785e-016 0 3.18055e-015 -0.916 -9.2044 0.2193 -3.97569e-016 -7.95139e-016 3.18055e-015 -0.0117 -4.1944 -0.0248 0.0129473 0.00231697 -8.70038e-005 -0.0071 -2.3249 -0.0142 9.93923e-017 -7.95139e-016 1.59028e-015 -0.6113 -8.7231 -2.0637 -3.97569e-016 -7.95139e-016 3.18055e-015 0.1927 -3.8059 -0.2383 0.0163314 0.00303369 -0.000872333 0.1091 -2.1688 -0.1362 3.97569e-016 7.95139e-016 -3.18055e-015 0.6151 -8.0947 -3.564 -3.97569e-016 -7.95139e-016 3.18055e-015 0.4882 -2.341 -0.6462 0.0145763 0.00367772 -0.00326275 0.3574 -1.7166 -0.4742 9.93923e-017 -3.97569e-016 -0 1.4199 -1.8761 1.4221 -3.97569e-016 -7.95139e-016 3.18055e-015 1.1472 -3.4929 2.6336 -1.98785e-016 -3.97569e-016 3.18055e-015 0.8229 -2.3 1.6571 -1.98785e-016 0 3.18055e-015 -9.412 3.9771 -0.7758 3.42485 1.36937 -0.0640303 -0.7531 -40.938 0 0.000136572 0.69354 0.00145564 1.77636e-015 -40.1986 -1.11022e-016 -3.42573 -2.06297 -0.0607933 8.88178e-016 -4.4182 9.239 -3.19502e-024 0 -1.48106e-024 9.4119 3.9773 -0.7758 -3.42498 1.36123 0.0639712 0.7532 -40.9383 2.22045e-016 -6.769e-005 0.712612 -0.0012277 8.88179e-016 -40.1986 0 3.42582 -2.07388 0.0612819 -8.88178e-016 -4.4182 9.239 2.55305e-023 0 -2.31416e-026 
40.0802 9.64989 25.23 179.997 58.9881 2.46787e-008 7.10543e-015 8.7983 -4.7612 0.555651 7.03721 -0.546575 -7.10543e-015 8.0291 0.4195 1.19318 14.0684 -1.17597 7.10543e-015 9.9351 -2.2114 1.19319 14.0685 -1.17597 0 22.3885 -0.4656 -4.08438e-006 13.9934 3.49994e-006 -0.0001 12.643 3.4389 6.72143e-007 0.134639 -6.7747e-007 2.2603 21.606 7.4023 -44.2408 -3.79167 -11.4728 13.5163 -1.1332 -5.0146 92.2425 15.8966 -45.4815 -0.0995 -28.05 -0.2431 0.223218 -2.5019 -36.3658 0.0679 -23.3996 -0.1402 0.537196 -4.79819 -11.3136 0.7932 -9.069 2.5189 -2.2371e-006 4.83661e-006 2.5936e-006 -0.8272 -3.3923 0.5977 -3.97569e-016 -1.90833e-014 -3.97569e-016 -0.5649 -2.3158 0.4082 -1.19271e-015 -1.27222e-014 -3.97569e-016 0.915899 -9.2044 0.2193 -2.2371e-006 4.83661e-006 2.5936e-006 0.0117 -4.1944 -0.0248 -0.0128237 0.00233558 8.94997e-005 0.0071 -2.3249 -0.0142 1.57958e-007 -5.79439e-006 -4.65374e-006 0.6113 -8.7231 -2.0637 -2.2371e-006 4.83661e-006 2.5936e-006 -0.1927 -3.8059 -0.2383 -0.016038 0.00300044 0.000854273 -0.1091 -2.1688 -0.1362 9.93923e-015 9.54166e-015 -9.54166e-015 -0.6151 -8.0947 -3.5641 -2.2371e-006 4.83661e-006 2.5936e-006 -0.4882 -2.341 -0.6462 -0.0125888 0.00312402 0.00282503 -0.3575 -1.7167 -0.4742 -9.80541e-006 -7.21296e-007 4.70091e-006 -1.42 -1.8761 1.4223 -2.2371e-006 4.83661e-006 2.5936e-006 -1.1471 -3.4929 2.6334 -3.97569e-016 -1.90833e-014 -3.97569e-016 -0.823 -2.3 1.6571 -1.19271e-015 -1.27222e-014 -3.97569e-016 -2.2603 21.606 7.4023 46.9606 -3.17057 -6.81751 -13.5187 -1.1334 -5.0155 -71.7948 -54.3786 -37.3803 0.0994 -28.0499 -0.2431 45.8117 7.67547 84.5778 -0.0679 -23.3996 -0.1402 -12.1248 -10.536 -29.27 -0.7932 -9.0691 2.5189 -1.28702e-006 1.35492e-006 -2.88655e-006 0.8272 -3.3923 0.5977 -1.59028e-015 0 -9.54166e-015 0.565 -2.3158 0.4082 6.36111e-015 0 -6.36111e-015 -0.916 -9.2044 0.2193 -1.28702e-006 1.35492e-006 -2.88655e-006 -0.0117 -4.1944 -0.0248 0.0129556 0.00231867 -8.88468e-005 -0.0071 -2.3249 -0.0142 -4.77083e-015 1.59028e-015 3.18055e-015 -0.6113 -8.7231 -2.0637 -1.28702e-006 1.35492e-006 -2.88655e-006 0.1927 -3.8059 -0.2383 0.0163004 0.0030321 -0.000864661 0.1091 -2.1688 -0.1362 4.77083e-015 -1.59028e-015 -0 0.6151 -8.0947 -3.564 -1.28702e-006 1.35492e-006 -2.88655e-006 0.4882 -2.341 -0.6462 0.0145876 0.00368438 -0.00326578 0.3574 -1.7166 -0.4742 -5.56597e-015 4.77083e-015 3.18055e-015 1.4199 -1.8761 1.4221 -1.28702e-006 1.35492e-006 -2.88655e-006 1.1472 -3.4929 2.6336 -1.59028e-015 0 -9.54166e-015 0.8229 -2.3 1.6571 6.36111e-015 0 -6.36111e-015 -9.412 3.9771 -0.7758 -42.3802 -48.3445 -72.7254 -0.7531 -40.938 0 -121.914 41.2821 138.984 -7.10543e-015 -40.1986 0 -17.8239 -5.03265 -33.5214 0 -4.4182 9.239 5.29669e-031 6.36111e-015 -4.77083e-015 9.4119 3.9773 -0.7758 55.558 -49.6608 83.5978 0.7532 -40.9383 -3.55271e-015 130.101 43.4576 -123.86 3.55271e-015 -40.1986 7.10543e-015 23.2804 -12.2764 11.2541 0 -4.4182 9.239 6.54619e-006 -2.19677e-006 4.22739e-006 
40.0796 9.65089 25.0757 179.997 58.9977 -1.10074e-006 0 8.7983 -4.7612 0.554443 7.14815 -0.549672 7.10543e-015 8.0291 0.4195 1.1927 14.2902 -1.18366 -7.10543e-015 9.9351 -2.2114 1.19271 14.2903 -1.18366 -7.10543e-015 22.3885 -0.4656 -2.73474e-006 14.3823 2.46765e-006 -0.0001 12.643 3.4389 -1.29319e-007 0.460293 -2.71678e-007 2.2603 21.606 7.4023 -44.7215 -3.76847 -12.1846 13.5163 -1.1332 -5.0146 93.2012 16.6318 -45.7101 -0.0995 -28.05 -0.2431 0.0933675 -3.00061 -36.375 0.0679 -23.3996 -0.1402 0.816321 -4.87097 -10.8289 0.7932 -9.069 2.5189 -2.41896e-006 1.18897e-006 -2.39929e-006 -0.8272 -3.3923 0.5977 2.41896e-006 -1.18897e-006 2.39929e-006 -0.5649 -2.3158 0.4082 -2.41896e-006 1.18897e-006 -2.39929e-006 0.9159 -9.2044 0.2193 -2.41896e-006 1.18897e-006 -2.39929e-006 0.0117 -4.1944 -0.0248 -0.0128251 0.0023227 8.27878e-005 0.0071 -2.3249 -0.0142 -1.20941e-006 1.17035e-006 -1.19969e-006 0.6113 -8.7231 -2.0637 -2.41896e-006 1.18897e-006 -2.39929e-006 -0.1927 -3.8059 -0.2383 -0.0160513 0.00298609 0.000855777 -0.1091 -2.1688 -0.1362 -1.19586e-006 8.21381e-006 3.6241e-006 -0.6151 -8.0947 -3.5641 -2.41896e-006 1.18897e-006 -2.39929e-006 -0.4882 -2.341 -0.6462 -0.0126043 0.00312747 0.00283228 -0.3575 -1.7167 -0.4742 -3.61464e-006 6.97077e-006 1.22467e-006 -1.42 -1.8761 1.4223 -2.41896e-006 1.18897e-006 -2.39929e-006 -1.1471 -3.4929 2.6334 2.41896e-006 -1.18897e-006 2.39929e-006 -0.823 -2.3 1.6571 -2.41896e-006 1.18897e-006 -2.39929e-006 -2.2603 21.606 7.4023 46.7911 -3.5617 -6.7955 -13.5187 -1.1334 -5.0155 -72.1313 -54.9293 -37.7477 0.0994 -28.0499 -0.2431 46.6155 7.77323 85.1813 -0.0679 -23.3996 -0.1402 -12.6244 -10.6737 -29.304 -0.7932 -9.0691 2.5189 7.95139e-016 4.77083e-015 -0 0.8272 -3.3923 0.597701 -1.59028e-015 1.59028e-015 -6.36111e-015 0.565 -2.3158 0.4082 4.77083e-015 3.18055e-015 3.18055e-015 -0.916 -9.2044 0.2193 7.95139e-016 4.77083e-015 -0 -0.0117 -4.1944 -0.0248 0.0129606 0.00231813 -9.1535e-005 -0.0071 -2.3249 -0.0142 -2.38542e-015 0 -6.36111e-015 -0.6113 -8.7231 -2.0637 7.95139e-016 4.77083e-015 -0 0.1927 -3.8059 -0.2383 0.0163391 0.0030322 -0.000875098 0.1091 -2.1688 -0.1362 -2.38542e-015 1.59028e-015 -3.18055e-015 0.6151 -8.0947 -3.564 7.95139e-016 4.77083e-015 -0 0.4882 -2.341 -0.646201 0.0146222 0.00368189 -0.00327339 0.3574 -1.7166 -0.4742 -3.20577e-007 -4.05268e-006 1.57389e-006 1.4199 -1.8761 1.4221 7.95139e-016 4.77083e-015 -0 1.1472 -3.4929 2.6336 -1.59028e-015 1.59028e-015 -6.36111e-015 0.8229 -2.3 1.6571 4.77083e-015 3.18055e-015 3.18055e-015 -9.412 3.9771 -0.7758 -42.7413 -48.535 -73.033 -0.7531 -40.938 7.10543e-015 -121.915 41.2818 138.987 -1.42109e-014 -40.1986 0 -17.8208 -5.03196 -33.52 0 -4.4182 9.239 4.69595e-006 -1.55667e-005 9.5216e-007 9.4119 3.9773 -0.7758 56.0383 -49.8107 83.9827 0.7532 -40.9383 -3.55271e-015 130.37 43.06 -124.268 0 -40.1986 0 23.2979 -12.5228 11.1491 0 -4.4182 9.239 -5.40136e-007 5.43342e-007 1.4025e-006 
40.0791 9.65276 24.9226 179.997 58.9977 3.84449e-008 0 8.7983 -4.7612 0.553227 7.25916 -0.552761 0 8.0291 0.4195 1.19223 14.5122 -1.19135 1.42109e-014 9.9351 -2.2114 1.19224 14.5122 -1.19135 0 22.3885 -0.4656 -8.47628e-007 14.7713 5.97173e-007 -0.0001 12.643 3.4389 -2.27537e-007 0.785981 6.01287e-007 2.2603 21.606 7.4023 -45.2024 -3.7393 -12.8967 13.5163 -1.1332 -5.0146 94.1684 17.3646 -45.953 -0.0995 -28.05 -0.2431 -0.0365982 -3.49961 -36.3857 0.0679 -23.3996 -0.1402 1.09611 -4.94143 -10.3437 0.7932 -9.069 2.5189 -4.41391e-032 6.36111e-015 3.97569e-016 -0.8272 -3.3923 0.5977 -3.97569e-016 2.22639e-014 -3.97569e-016 -0.5649 -2.3158 0.4082 7.95139e-016 9.54166e-015 3.97569e-016 0.9159 -9.2044 0.2193 -4.41391e-032 6.36111e-015 3.97569e-016 0.0117 -4.1944 -0.0248 -0.0128244 0.00233518 8.79702e-005 0.0071 -2.3249 -0.0142 4.96833e-006 -8.61624e-007 -4.6864e-006 0.6113 -8.7231 -2.0637 -4.41391e-032 6.36111e-015 3.97569e-016 -0.1927 -3.8059 -0.2383 -0.0160451 0.00299977 0.000857745 -0.1091 -2.1688 -0.1362 -0 -3.18055e-015 -0 -0.6151 -8.0947 -3.5641 -4.41391e-032 6.36111e-015 3.97569e-016 -0.4882 -2.341 -0.6462 -0.0125748 0.00312011 0.00282171 -0.3575 -1.7167 -0.4742 -1.19271e-015 1.59028e-014 -3.97569e-016 -1.42 -1.8761 1.4223 -4.41391e-032 6.36111e-015 3.97569e-016 -1.1471 -3.4929 2.6334 -3.97569e-016 2.22639e-014 -3.97569e-016 -0.823 -2.3 1.6571 7.95139e-016 9.54166e-015 3.97569e-016 -2.2603 21.606 7.4023 46.6217 -3.95294 -6.77466 -13.5187 -1.1334 -5.0155 -72.4777 -55.4768 -38.1252 0.0994 -28.0499 -0.2431 47.4136 7.8674 85.8169 -0.0679 -23.3996 -0.1402 -13.1247 -10.8108 -29.3405 -0.7932 -9.0691 2.5189 -2.6226e-006 -2.21323e-006 -1.42854e-006 0.8272 -3.3923 0.5977 -4.5952e-006 1.23743e-006 -1.19672e-006 0.565 -2.3158 0.4082 -4.88772e-006 -2.48794e-006 3.72793e-007 -0.916 -9.2044 0.2193 -2.6226e-006 -2.21323e-006 -1.42854e-006 -0.0117 -4.1944 -0.0248 0.0129378 0.00231845 -8.7055e-005 -0.0071 -2.3249 -0.0142 -2.92721e-007 -3.73167e-006 1.56951e-006 -0.6113 -8.7231 -2.0637 -2.6226e-006 -2.21323e-006 -1.42854e-006 0.1927 -3.8059 -0.2383 0.0163427 0.00303233 -0.000869329 0.1091 -2.1688 -0.1362 -5.69059e-006 -1.32849e-006 -5.67373e-006 0.6151 -8.0947 -3.564 -2.6226e-006 -2.21323e-006 -1.42854e-006 0.4882 -2.341 -0.6462 0.0145254 0.00366399 -0.00325926 0.3574 -1.7166 -0.4742 -4.88812e-006 7.16768e-008 3.72565e-007 1.4199 -1.8761 1.4221 -2.6226e-006 -2.21323e-006 -1.42854e-006 1.1472 -3.4929 2.6336 -4.5952e-006 1.23743e-006 -1.19672e-006 0.8229 -2.3 1.6571 -4.88772e-006 -2.48794e-006 3.72793e-007 -9.412 3.9771 -0.7758 -43.1108 -48.7212 -73.3476 -0.7531 -40.938 0 -121.913 41.2803 138.993 0 -40.1986 -7.10543e-015 -17.8178 -5.03135 -33.5186 7.10543e-015 -4.4182 9.239 -3.86081e-006 -2.46163e-006 -2.41736e-006 9.4119 3.9773 -0.7758 56.5253 -49.9568 84.3731 0.7532 -40.9383 0 130.633 42.66 -124.674 -3.55271e-015 -40.1986 0 23.3147 -12.7693 11.0437 0 -4.4182 9.239 -1.56242e-006 3.97569e-015 -2.21643e-007 
